<svg width="32" height="29" viewBox="0 0 32 29" fill="none" xmlns="http://www.w3.org/2000/svg">
<g id="Group">
<g id="Group_2">
<g id="Group_3">
<path id="Vector" d="M27.4999 9.757V2.672H28.4999V11.757V11.964L28.6459 12.111L30.9999 14.464L30.2929 15.172L29.3529 14.232L28.4999 13.377V14.585V15.172C28.4999 15.812 28.2599 16.395 27.8639 16.838L27.5649 17.171L27.8629 17.505C28.2279 17.912 28.4599 18.438 28.4949 19.017L28.4999 19.179V20.172C28.4999 20.812 28.2599 21.395 27.8639 21.838L27.5649 22.171L27.8629 22.505C28.2279 22.912 28.4599 23.438 28.4949 24.017L28.4999 24.179V25.172C28.4999 26.501 27.4629 27.588 26.1539 27.667L25.9929 27.672H5.99991C4.67091 27.672 3.58391 26.635 3.50491 25.326L3.49991 25.164V24.172C3.49991 23.531 3.73991 22.948 4.13591 22.505L4.43491 22.172L4.13591 21.838C3.77191 21.431 3.53991 20.905 3.50491 20.326L3.49991 20.164V19.172C3.49991 18.531 3.73991 17.948 4.13591 17.505L4.43491 17.172L4.13591 16.838C3.78191 16.442 3.55191 15.933 3.50791 15.371L3.49991 15.162V14.585V13.378L2.64591 14.232L1.70691 15.172L0.999908 14.465L14.2319 1.232C15.1669 0.296999 16.6599 0.257999 17.6409 1.114L17.7729 1.238L26.6459 10.111L27.4999 10.964V9.757ZM11.4999 23.171V22.671H10.9999L5.99991 22.672C5.22991 22.672 4.59691 23.251 4.50991 23.997L4.50791 24.012L4.50691 24.026L4.50091 24.143L4.49991 24.157V24.172V25.172C4.49991 25.941 5.07891 26.575 5.82591 26.662L5.83991 26.663L5.85391 26.664L5.97091 26.671L5.98491 26.672H5.99991H10.9999H11.4999V26.172V23.171ZM19.4999 17.172V16.672H18.9999H12.9999H12.4999V17.172V26.172V26.672H12.9999H18.9999H19.4999V26.172V17.172ZM26.0289 22.672H26.0139H25.9999L20.9999 22.671H20.4999V23.171V26.172V26.672H20.9999H25.9999C26.7689 26.672 27.4029 26.092 27.4899 25.346L27.4909 25.332L27.4919 25.317L27.4989 25.2L27.4999 25.186V25.172V24.172C27.4999 23.402 26.9209 22.768 26.1739 22.682L26.1599 22.68L26.1449 22.679L26.0289 22.672ZM26.0289 17.672H26.0139H25.9999L20.9999 17.671H20.4999V18.171V21.171V21.671H20.9999L25.9999 21.672C26.7689 21.672 27.4029 21.092 27.4899 20.346L27.4909 20.332L27.4919 20.317L27.4989 20.2L27.4999 20.186V20.172V19.172C27.4999 18.402 26.9209 17.768 26.1739 17.682L26.1599 17.68L26.1449 17.679L26.0289 17.672ZM11.4999 18.171V17.671H10.9999L5.99991 17.672C5.22991 17.672 4.59691 18.251 4.50991 18.997L4.50791 19.012L4.50691 19.026L4.50091 19.143L4.49991 19.157V19.172V20.172C4.49991 20.941 5.07891 21.575 5.82591 21.662L5.83991 21.663L5.85391 21.664L5.97091 21.671L5.98491 21.672H5.99991L10.9999 21.671H11.4999V21.171V18.171ZM4.50991 13.997L4.50791 14.012L4.50691 14.026L4.50091 14.143L4.49991 14.157V14.172V15.172C4.49991 15.941 5.07891 16.575 5.82591 16.662L5.83991 16.663L5.85391 16.664L5.97091 16.671L5.98491 16.672H5.99991L11.2679 16.671H11.5559L11.6999 16.421C11.9419 16.005 12.3759 15.716 12.8789 15.676L13.0089 15.672H18.9999C19.5539 15.672 20.0389 15.972 20.2989 16.422L20.4439 16.671H20.7319L25.9999 16.672C26.7689 16.672 27.4029 16.092 27.4899 15.346L27.4909 15.332L27.4919 15.317L27.4989 15.2L27.4999 15.186V15.172V14.172C27.4999 13.343 26.8279 12.672 25.9999 12.672H5.99991C5.22991 12.672 4.59691 13.251 4.50991 13.997ZM22.9389 7.817L22.7929 7.671H22.5859H9.41391H9.20691L9.05991 7.817L6.05991 10.817L5.20691 11.671H6.41391H25.5859H26.7929L25.9389 10.817L22.9389 7.817ZM15.0799 1.815L15.0679 1.825L15.0559 1.835L14.9619 1.918L14.9499 1.928L14.9389 1.939L11.0599 5.817L10.2059 6.671H11.4139H20.5859H21.7929L20.9389 5.817L17.0599 1.939C16.5189 1.398 15.6689 1.357 15.0799 1.815Z" fill="#717171"/>
<path id="Vector_2" d="M27.4999 9.757V2.672H28.4999V11.757V11.964L28.6459 12.111L30.9999 14.464L30.2929 15.172L29.3529 14.232L28.4999 13.377V14.585V15.172C28.4999 15.812 28.2599 16.395 27.8639 16.838L27.5649 17.171L27.8629 17.505C28.2279 17.912 28.4599 18.438 28.4949 19.017L28.4999 19.179V20.172C28.4999 20.812 28.2599 21.395 27.8639 21.838L27.5649 22.171L27.8629 22.505C28.2279 22.912 28.4599 23.438 28.4949 24.017L28.4999 24.179V25.172C28.4999 26.501 27.4629 27.588 26.1539 27.667L25.9929 27.672H5.99991C4.67091 27.672 3.58391 26.635 3.50491 25.326L3.49991 25.164V24.172C3.49991 23.531 3.73991 22.948 4.13591 22.505L4.43491 22.172L4.13591 21.838C3.77191 21.431 3.53991 20.905 3.50491 20.326L3.49991 20.164V19.172C3.49991 18.531 3.73991 17.948 4.13591 17.505L4.43491 17.172L4.13591 16.838C3.78191 16.442 3.55191 15.933 3.50791 15.371L3.49991 15.162V14.585V13.378L2.64591 14.232L1.70691 15.172L0.999908 14.465L14.2319 1.232C15.1669 0.296999 16.6599 0.257999 17.6409 1.114L17.7729 1.238L26.6459 10.111L27.4999 10.964V9.757ZM11.4999 23.171V22.671H10.9999L5.99991 22.672C5.22991 22.672 4.59691 23.251 4.50991 23.997L4.50791 24.012L4.50691 24.026L4.50091 24.143L4.49991 24.157V24.172V25.172C4.49991 25.941 5.07891 26.575 5.82591 26.662L5.83991 26.663L5.85391 26.664L5.97091 26.671L5.98491 26.672H5.99991H10.9999H11.4999V26.172V23.171ZM19.4999 17.172V16.672H18.9999H12.9999H12.4999V17.172V26.172V26.672H12.9999H18.9999H19.4999V26.172V17.172ZM26.0289 22.672H26.0139H25.9999L20.9999 22.671H20.4999V23.171V26.172V26.672H20.9999H25.9999C26.7689 26.672 27.4029 26.092 27.4899 25.346L27.4909 25.332L27.4919 25.317L27.4989 25.2L27.4999 25.186V25.172V24.172C27.4999 23.402 26.9209 22.768 26.1739 22.682L26.1599 22.68L26.1449 22.679L26.0289 22.672ZM26.0289 17.672H26.0139H25.9999L20.9999 17.671H20.4999V18.171V21.171V21.671H20.9999L25.9999 21.672C26.7689 21.672 27.4029 21.092 27.4899 20.346L27.4909 20.332L27.4919 20.317L27.4989 20.2L27.4999 20.186V20.172V19.172C27.4999 18.402 26.9209 17.768 26.1739 17.682L26.1599 17.68L26.1449 17.679L26.0289 17.672ZM11.4999 18.171V17.671H10.9999L5.99991 17.672C5.22991 17.672 4.59691 18.251 4.50991 18.997L4.50791 19.012L4.50691 19.026L4.50091 19.143L4.49991 19.157V19.172V20.172C4.49991 20.941 5.07891 21.575 5.82591 21.662L5.83991 21.663L5.85391 21.664L5.97091 21.671L5.98491 21.672H5.99991L10.9999 21.671H11.4999V21.171V18.171ZM4.50991 13.997L4.50791 14.012L4.50691 14.026L4.50091 14.143L4.49991 14.157V14.172V15.172C4.49991 15.941 5.07891 16.575 5.82591 16.662L5.83991 16.663L5.85391 16.664L5.97091 16.671L5.98491 16.672H5.99991L11.2679 16.671H11.5559L11.6999 16.421C11.9419 16.005 12.3759 15.716 12.8789 15.676L13.0089 15.672H18.9999C19.5539 15.672 20.0389 15.972 20.2989 16.422L20.4439 16.671H20.7319L25.9999 16.672C26.7689 16.672 27.4029 16.092 27.4899 15.346L27.4909 15.332L27.4919 15.317L27.4989 15.2L27.4999 15.186V15.172V14.172C27.4999 13.343 26.8279 12.672 25.9999 12.672H5.99991C5.22991 12.672 4.59691 13.251 4.50991 13.997ZM22.9389 7.817L22.7929 7.671H22.5859H9.41391H9.20691L9.05991 7.817L6.05991 10.817L5.20691 11.671H6.41391H25.5859H26.7929L25.9389 10.817L22.9389 7.817ZM15.0799 1.815L15.0679 1.825L15.0559 1.835L14.9619 1.918L14.9499 1.928L14.9389 1.939L11.0599 5.817L10.2059 6.671H11.4139H20.5859H21.7929L20.9389 5.817L17.0599 1.939C16.5189 1.398 15.6689 1.357 15.0799 1.815Z" stroke="#717171"/>
</g>
</g>
</g>
</svg>
