<svg width="28" height="29" viewBox="0 0 28 29" fill="none" xmlns="http://www.w3.org/2000/svg">
<g id="Group">
<g id="Group_2">
<g id="Group_3">
<path id="Vector" d="M26 0.5C27.054 0.5 27.918 1.316 27.995 2.351L28 2.5V26.5C28 27.554 27.184 28.418 26.149 28.494L26 28.5H2C0.946 28.5 0.0819998 27.684 0.00500011 26.649L0 26.5V2.5C0 1.446 0.816 0.582 1.851 0.505L2 0.5H26ZM14 5.415L10.914 8.5H2V26.5H10V21.5C10 20.446 10.816 19.582 11.851 19.505L12 19.5H16C17.054 19.5 17.918 20.316 17.995 21.351L18 21.5V26.5H26V8.5H17.086L14 5.415ZM16 21.5H12V26.5H16V21.5ZM22 19.5C22.552 19.5 23 19.948 23 20.5C23 21.052 22.552 21.5 22 21.5C21.448 21.5 21 21.052 21 20.5C21 19.948 21.448 19.5 22 19.5ZM6 19.5C6.552 19.5 7 19.948 7 20.5C7 21.052 6.552 21.5 6 21.5C5.448 21.5 5 21.052 5 20.5C5 19.948 5.448 19.5 6 19.5ZM22 15.5C22.552 15.5 23 15.948 23 16.5C23 17.052 22.552 17.5 22 17.5C21.448 17.5 21 17.052 21 16.5C21 15.948 21.448 15.5 22 15.5ZM6 15.5C6.552 15.5 7 15.948 7 16.5C7 17.052 6.552 17.5 6 17.5C5.448 17.5 5 17.052 5 16.5C5 15.948 5.448 15.5 6 15.5ZM22 11.5C22.552 11.5 23 11.948 23 12.5C23 13.052 22.552 13.5 22 13.5C21.448 13.5 21 13.052 21 12.5C21 11.948 21.448 11.5 22 11.5ZM14 11.5C14.552 11.5 15 11.948 15 12.5C15 13.052 14.552 13.5 14 13.5C13.448 13.5 13 13.052 13 12.5C13 11.948 13.448 11.5 14 11.5ZM6 11.5C6.552 11.5 7 11.948 7 12.5C7 13.052 6.552 13.5 6 13.5C5.448 13.5 5 13.052 5 12.5C5 11.948 5.448 11.5 6 11.5ZM26 6.5V2.5H2V6.5H10.084L12.586 4C13.326 3.26 14.501 3.221 15.287 3.883L15.414 4L17.915 6.5H26Z" fill="#717171"/>
</g>
</g>
</g>
</svg>
