<svg width="32" height="29" viewBox="0 0 32 29" fill="none" xmlns="http://www.w3.org/2000/svg">
<g id="Group">
<g id="Group_2">
<g id="Group_3">
<path id="Vector" d="M16.947 1.142L17.126 1.24L27.109 7.139L26.091 8.861L24.6 7.979V13C24.6 13.079 24.591 13.155 24.573 13.229L31.2 18.2L30 19.8L28.6 18.749V28C28.6 28.512 28.214 28.935 27.716 28.993L27.6 29H3.6C3.087 29 2.664 28.614 2.607 28.116L2.6 28V18.749L1.2 19.8L0 18.2L6.626 13.229L6.607 13.116L6.6 13V7.979L5.109 8.861L4.091 7.139L14.074 1.24C14.956 0.718002 16.039 0.686002 16.947 1.142ZM8.6 18.999L4.6 19V27L8.6 26.999V18.999ZM20.6 19H10.6V27L12.6 26.999V22C12.6 21.487 12.986 21.064 13.483 21.006L13.6 21H17.6C18.113 21 18.535 21.386 18.593 21.883L18.6 22V26.999L20.6 27V19ZM26.6 19L22.6 18.999V26.999L26.6 27V19ZM16.6 23H14.6V27H16.6V23ZM26.267 16.999L22.267 14L20.365 13.999L22.165 16.999H26.267ZM4.933 16.999H9.034L10.834 13.999L8.933 14L4.933 16.999ZM18.035 14H13.166L11.366 16.999H19.834L18.035 14ZM11.6 7.999L8.6 8V12L11.6 11.999V7.999ZM17.6 7.999H13.6V11.999H17.6V7.999ZM22.6 8L19.6 7.999V11.999L22.6 12V8ZM15.212 2.901L15.091 2.962L9.951 5.999H21.248L16.109 2.962C15.834 2.8 15.501 2.779 15.212 2.901Z" fill="#717171"/>
</g>
</g>
</g>
</svg>
